<mxfile host="Electron" agent="Mozilla/5.0 (Windows NT 10.0; Win64; x64) AppleWebKit/537.36 (KHTML, like Gecko) draw.io/26.0.16 Chrome/132.0.6834.196 Electron/34.2.0 Safari/537.36" version="26.0.16">
  <diagram id="W0CRDVfjsobaWmoY9FmI" name="第 1 页">
    <mxGraphModel dx="1727" dy="1023" grid="1" gridSize="10" guides="1" tooltips="1" connect="1" arrows="1" fold="1" page="1" pageScale="1" pageWidth="850" pageHeight="1100" math="0" shadow="0">
      <root>
        <mxCell id="0" />
        <mxCell id="1" parent="0" />
        <mxCell id="title" value="Python-R双栈智能药动学决策系统" style="text;html=1;strokeColor=none;fillColor=none;align=center;verticalAlign=middle;whiteSpace=wrap;rounded=0;fontSize=16;fontStyle=1" parent="1" vertex="1">
          <mxGeometry x="250" y="20" width="350" height="30" as="geometry" />
        </mxCell>
        <mxCell id="data_section" value="数据管理层" style="swimlane;whiteSpace=wrap;html=1;fillColor=#D6E9D5;strokeColor=#82b366;" parent="1" vertex="1">
          <mxGeometry x="120" y="80" width="610" height="200" as="geometry" />
        </mxCell>
        <mxCell id="data_source" value="临床数据文件&#xa;(CSV/RDS)" style="shape=cylinder3;whiteSpace=wrap;html=1;boundedLbl=1;backgroundOutline=1;size=15;fillColor=#D6E9D5;strokeColor=#82b366;" parent="data_section" vertex="1">
          <mxGeometry x="50" y="50" width="100" height="80" as="geometry" />
        </mxCell>
        <mxCell id="data_upload" value="数据上传模块" style="rounded=1;whiteSpace=wrap;html=1;fillColor=#D6E9D5;strokeColor=#82b366;" parent="data_section" vertex="1">
          <mxGeometry x="210" y="60" width="120" height="60" as="geometry" />
        </mxCell>
        <mxCell id="data_exploration" value="数据探索模块" style="rounded=1;whiteSpace=wrap;html=1;fillColor=#D6E9D5;strokeColor=#82b366;" parent="data_section" vertex="1">
          <mxGeometry x="380" y="60" width="120" height="60" as="geometry" />
        </mxCell>
        <mxCell id="preprocessed_data" value="标准化数据&#xa;(PKdata)" style="shape=cylinder3;whiteSpace=wrap;html=1;boundedLbl=1;backgroundOutline=1;size=15;fillColor=#D6E9D5;strokeColor=#82b366;" parent="data_section" vertex="1">
          <mxGeometry x="210" y="140" width="290" height="50" as="geometry" />
        </mxCell>
        <mxCell id="arrow1" style="edgeStyle=orthogonalEdgeStyle;rounded=0;orthogonalLoop=1;jettySize=auto;html=1;exitX=1;exitY=0.5;exitDx=0;exitDy=0;entryX=0;entryY=0.5;entryDx=0;entryDy=0;" parent="data_section" source="data_source" target="data_upload" edge="1">
          <mxGeometry relative="1" as="geometry" />
        </mxCell>
        <mxCell id="arrow2" style="edgeStyle=orthogonalEdgeStyle;rounded=0;orthogonalLoop=1;jettySize=auto;html=1;exitX=1;exitY=0.5;exitDx=0;exitDy=0;entryX=0;entryY=0.5;entryDx=0;entryDy=0;" parent="data_section" source="data_upload" target="data_exploration" edge="1">
          <mxGeometry relative="1" as="geometry" />
        </mxCell>
        <mxCell id="arrow3" style="edgeStyle=orthogonalEdgeStyle;rounded=0;orthogonalLoop=1;jettySize=auto;html=1;exitX=0.5;exitY=1;exitDx=0;exitDy=0;entryX=0.5;entryY=0;entryDx=0;entryDy=0;entryPerimeter=0;" parent="data_section" source="data_upload" target="preprocessed_data" edge="1">
          <mxGeometry relative="1" as="geometry">
            <Array as="points">
              <mxPoint x="270" y="130" />
              <mxPoint x="355" y="130" />
            </Array>
          </mxGeometry>
        </mxCell>
        <mxCell id="arrow4" style="edgeStyle=orthogonalEdgeStyle;rounded=0;orthogonalLoop=1;jettySize=auto;html=1;exitX=0.5;exitY=1;exitDx=0;exitDy=0;entryX=0.5;entryY=0;entryDx=0;entryDy=0;entryPerimeter=0;" parent="data_section" source="data_exploration" target="preprocessed_data" edge="1">
          <mxGeometry relative="1" as="geometry">
            <Array as="points">
              <mxPoint x="440" y="130" />
              <mxPoint x="355" y="130" />
            </Array>
          </mxGeometry>
        </mxCell>
        <mxCell id="model_section" value="模型构建层" style="swimlane;whiteSpace=wrap;html=1;fillColor=#AFE3E6;strokeColor=#6c8ebf;" parent="1" vertex="1">
          <mxGeometry x="120" y="300" width="610" height="240" as="geometry" />
        </mxCell>
        <mxCell id="model_library" value="基础模型库" style="shape=cylinder3;whiteSpace=wrap;html=1;boundedLbl=1;backgroundOutline=1;size=15;fillColor=#AFE3E6;strokeColor=#6c8ebf;" parent="model_section" vertex="1">
          <mxGeometry x="50" y="50" width="100" height="80" as="geometry" />
        </mxCell>
        <mxCell id="model_selection" value="模型选择" style="rhombus;whiteSpace=wrap;html=1;fillColor=#AFE3E6;strokeColor=#6c8ebf;" parent="model_section" vertex="1">
          <mxGeometry x="210" y="50" width="120" height="80" as="geometry" />
        </mxCell>
        <mxCell id="objective_function" value="目标函数计算" style="rhombus;whiteSpace=wrap;html=1;fillColor=#AFE3E6;strokeColor=#6c8ebf;" parent="model_section" vertex="1">
          <mxGeometry x="380" y="50" width="120" height="80" as="geometry" />
        </mxCell>
        <mxCell id="covariant_screening" value="协变量筛选" style="hexagon;whiteSpace=wrap;html=1;fillColor=#AFE3E6;strokeColor=#6c8ebf;" parent="model_section" vertex="1">
          <mxGeometry x="120" y="150" width="140" height="70" as="geometry" />
        </mxCell>
        <mxCell id="parameter_evaluation" value="参数评估" style="hexagon;whiteSpace=wrap;html=1;fillColor=#AFE3E6;strokeColor=#6c8ebf;" parent="model_section" vertex="1">
          <mxGeometry x="290" y="150" width="140" height="70" as="geometry" />
        </mxCell>
        <mxCell id="model_diagnosis" value="模型诊断" style="hexagon;whiteSpace=wrap;html=1;fillColor=#AFE3E6;strokeColor=#6c8ebf;" parent="model_section" vertex="1">
          <mxGeometry x="460" y="150" width="140" height="70" as="geometry" />
        </mxCell>
        <mxCell id="arrow5" style="edgeStyle=orthogonalEdgeStyle;rounded=0;orthogonalLoop=1;jettySize=auto;html=1;exitX=1;exitY=0.5;exitDx=0;exitDy=0;entryX=0;entryY=0.5;entryDx=0;entryDy=0;" parent="model_section" source="model_library" target="model_selection" edge="1">
          <mxGeometry relative="1" as="geometry" />
        </mxCell>
        <mxCell id="arrow6" style="edgeStyle=orthogonalEdgeStyle;rounded=0;orthogonalLoop=1;jettySize=auto;html=1;exitX=1;exitY=0.5;exitDx=0;exitDy=0;entryX=0;entryY=0.5;entryDx=0;entryDy=0;" parent="model_section" source="model_selection" target="objective_function" edge="1">
          <mxGeometry relative="1" as="geometry" />
        </mxCell>
        <mxCell id="arrow7" style="edgeStyle=orthogonalEdgeStyle;rounded=0;orthogonalLoop=1;jettySize=auto;html=1;exitX=0.5;exitY=1;exitDx=0;exitDy=0;entryX=0.5;entryY=0;entryDx=0;entryDy=0;" parent="model_section" source="model_selection" target="covariant_screening" edge="1">
          <mxGeometry relative="1" as="geometry">
            <Array as="points">
              <mxPoint x="270" y="140" />
              <mxPoint x="190" y="140" />
            </Array>
          </mxGeometry>
        </mxCell>
        <mxCell id="arrow8" style="edgeStyle=orthogonalEdgeStyle;rounded=0;orthogonalLoop=1;jettySize=auto;html=1;exitX=0.5;exitY=1;exitDx=0;exitDy=0;entryX=0.5;entryY=0;entryDx=0;entryDy=0;" parent="model_section" source="objective_function" target="parameter_evaluation" edge="1">
          <mxGeometry relative="1" as="geometry">
            <Array as="points">
              <mxPoint x="440" y="140" />
              <mxPoint x="360" y="140" />
            </Array>
          </mxGeometry>
        </mxCell>
        <mxCell id="arrow9" style="edgeStyle=orthogonalEdgeStyle;rounded=0;orthogonalLoop=1;jettySize=auto;html=1;exitX=1;exitY=0.5;exitDx=0;exitDy=0;entryX=0;entryY=0.5;entryDx=0;entryDy=0;" parent="model_section" source="parameter_evaluation" target="model_diagnosis" edge="1">
          <mxGeometry relative="1" as="geometry" />
        </mxCell>
        <mxCell id="decision_section" value="决策支持层" style="swimlane;whiteSpace=wrap;html=1;fillColor=#FAD8D4;strokeColor=#b85450;" parent="1" vertex="1">
          <mxGeometry x="120" y="560" width="610" height="240" as="geometry" />
        </mxCell>
        <mxCell id="optimization_engine" value="剂量优化引擎" style="rounded=1;whiteSpace=wrap;html=1;fillColor=#FAD8D4;strokeColor=#b85450;" parent="decision_section" vertex="1">
          <mxGeometry x="50" y="60" width="120" height="60" as="geometry" />
        </mxCell>
        <mxCell id="dose_recommendation" value="剂量推荐" style="rounded=1;whiteSpace=wrap;html=1;fillColor=#FAD8D4;strokeColor=#b85450;" parent="decision_section" vertex="1">
          <mxGeometry x="245" y="60" width="120" height="60" as="geometry" />
        </mxCell>
        <mxCell id="advanced_section" value="高级分析模块" style="swimlane;whiteSpace=wrap;html=1;fillColor=#FAD8D4;strokeColor=#b85450;" parent="decision_section" vertex="1">
          <mxGeometry x="400" y="40" width="190" height="180" as="geometry" />
        </mxCell>
        <mxCell id="machine_learning" value="机器学习增强" style="rounded=1;whiteSpace=wrap;html=1;fillColor=#FAD8D4;strokeColor=#b85450;" parent="advanced_section" vertex="1">
          <mxGeometry x="35" y="40" width="120" height="60" as="geometry" />
        </mxCell>
        <mxCell id="federated_learning" value="联邦学习协作" style="rounded=1;whiteSpace=wrap;html=1;fillColor=#FAD8D4;strokeColor=#b85450;" parent="advanced_section" vertex="1">
          <mxGeometry x="35" y="110" width="120" height="60" as="geometry" />
        </mxCell>
        <mxCell id="result_visualization" value="结果可视化" style="shape=cylinder3;whiteSpace=wrap;html=1;boundedLbl=1;backgroundOutline=1;size=15;fillColor=#FAD8D4;strokeColor=#b85450;" parent="decision_section" vertex="1">
          <mxGeometry x="150" y="150" width="210" height="60" as="geometry" />
        </mxCell>
        <mxCell id="arrow10" style="edgeStyle=orthogonalEdgeStyle;rounded=0;orthogonalLoop=1;jettySize=auto;html=1;exitX=1;exitY=0.5;exitDx=0;exitDy=0;entryX=0;entryY=0.5;entryDx=0;entryDy=0;" parent="decision_section" source="optimization_engine" target="dose_recommendation" edge="1">
          <mxGeometry relative="1" as="geometry" />
        </mxCell>
        <mxCell id="arrow11" style="edgeStyle=orthogonalEdgeStyle;rounded=0;orthogonalLoop=1;jettySize=auto;html=1;exitX=0.5;exitY=1;exitDx=0;exitDy=0;entryX=0.5;entryY=0;entryDx=0;entryDy=0;entryPerimeter=0;" parent="decision_section" source="dose_recommendation" target="result_visualization" edge="1">
          <mxGeometry relative="1" as="geometry" />
        </mxCell>
        <mxCell id="cross_arrow1" style="edgeStyle=orthogonalEdgeStyle;rounded=0;orthogonalLoop=1;jettySize=auto;html=1;exitX=0.5;exitY=1;exitDx=0;exitDy=0;entryX=0.5;entryY=0;entryDx=0;entryDy=0;" parent="1" source="preprocessed_data" target="model_selection" edge="1">
          <mxGeometry relative="1" as="geometry">
            <Array as="points">
              <mxPoint x="475" y="290" />
              <mxPoint x="390" y="290" />
            </Array>
          </mxGeometry>
        </mxCell>
        <mxCell id="cross_arrow2" style="edgeStyle=orthogonalEdgeStyle;rounded=0;orthogonalLoop=1;jettySize=auto;html=1;exitX=0.5;exitY=1;exitDx=0;exitDy=0;entryX=0.5;entryY=0;entryDx=0;entryDy=0;" parent="1" source="model_diagnosis" target="optimization_engine" edge="1">
          <mxGeometry relative="1" as="geometry">
            <Array as="points">
              <mxPoint x="650" y="550" />
              <mxPoint x="230" y="550" />
            </Array>
          </mxGeometry>
        </mxCell>
        <mxCell id="python_stack" value="Python 栈 (Flask+scikit-learn)" style="text;html=1;strokeColor=none;fillColor=none;align=center;verticalAlign=middle;whiteSpace=wrap;rounded=0;fontSize=12;fontStyle=1" parent="1" vertex="1">
          <mxGeometry x="120" y="820" width="200" height="30" as="geometry" />
        </mxCell>
        <mxCell id="r_stack" value="R 栈 (nlmixr2+ggplot2)" style="text;html=1;strokeColor=none;fillColor=none;align=center;verticalAlign=middle;whiteSpace=wrap;rounded=0;fontSize=12;fontStyle=1" parent="1" vertex="1">
          <mxGeometry x="530" y="820" width="200" height="30" as="geometry" />
        </mxCell>
        <mxCell id="integration_arrow" style="edgeStyle=orthogonalEdgeStyle;rounded=0;orthogonalLoop=1;jettySize=auto;html=1;startArrow=classic;startFill=1;" parent="1" source="python_stack" target="r_stack" edge="1">
          <mxGeometry relative="1" as="geometry" />
        </mxCell>
        <mxCell id="integration_text" value="通过rpy2接口集成" style="text;html=1;strokeColor=none;fillColor=none;align=center;verticalAlign=middle;whiteSpace=wrap;rounded=0;" parent="1" vertex="1">
          <mxGeometry x="345" y="812" width="140" height="30" as="geometry" />
        </mxCell>
      </root>
    </mxGraphModel>
  </diagram>
</mxfile>
